<svg width="14" height="15" viewBox="0 0 14 15" fill="none" xmlns="http://www.w3.org/2000/svg">
<path fill-rule="evenodd" clip-rule="evenodd" d="M2.54099 4.3824C1.77184 5.35241 1.3125 6.57923 1.3125 7.91333C1.3125 11.0545 3.85888 13.6008 7 13.6008C8.3341 13.6008 9.56092 13.1415 10.5309 12.3723L2.54099 4.3824ZM3.46907 3.45432L11.459 11.4443C12.2282 10.4743 12.6875 9.24743 12.6875 7.91333C12.6875 4.77221 10.1411 2.22583 7 2.22583C5.6659 2.22583 4.43908 2.68517 3.46907 3.45432ZM0 7.91333C0 4.04734 3.13401 0.91333 7 0.91333C10.866 0.91333 14 4.04734 14 7.91333C14 11.7793 10.866 14.9133 7 14.9133C3.13401 14.9133 0 11.7793 0 7.91333Z" fill="#DC180B"/>
</svg>
