<svg width="25" height="25" viewBox="0 0 25 25" fill="none" xmlns="http://www.w3.org/2000/svg">
<g clip-path="url(#clip0_2522_92870)">
<path d="M21.9325 15.5917L14.9016 3.9317C14.6173 3.48694 14.2256 3.12093 13.7626 2.86739C13.2997 2.61385 12.7803 2.48096 12.2525 2.48096C11.7246 2.48096 11.2052 2.61385 10.7423 2.86739C10.2793 3.12093 9.88758 3.48694 9.60328 3.9317L2.57245 15.5917C2.32408 16.0057 2.18909 16.4778 2.18105 16.9606C2.173 17.4433 2.29219 17.9196 2.52662 18.3417C2.79766 18.8168 3.18997 19.2114 3.66347 19.4852C4.13697 19.7589 4.67467 19.9021 5.22162 19.9H19.2833C19.8266 19.9058 20.3619 19.7682 20.8351 19.501C21.3083 19.2339 21.7026 18.8466 21.9783 18.3784C22.2196 17.9519 22.3426 17.4687 22.3345 16.9788C22.3265 16.4889 22.1877 16.01 21.9325 15.5917ZM12.2525 16.2334C12.0712 16.2334 11.8939 16.1796 11.7432 16.0789C11.5924 15.9782 11.4749 15.835 11.4056 15.6675C11.3362 15.5 11.318 15.3157 11.3534 15.1379C11.3888 14.96 11.4761 14.7967 11.6043 14.6685C11.7325 14.5403 11.8958 14.453 12.0736 14.4176C12.2514 14.3823 12.4357 14.4004 12.6032 14.4698C12.7707 14.5392 12.9139 14.6567 13.0146 14.8074C13.1154 14.9582 13.1691 15.1354 13.1691 15.3167C13.1691 15.5598 13.0725 15.793 12.9006 15.9649C12.7287 16.1368 12.4956 16.2334 12.2525 16.2334ZM13.1691 12.5667C13.1691 12.8098 13.0725 13.043 12.9006 13.2149C12.7287 13.3868 12.4956 13.4834 12.2525 13.4834C12.0093 13.4834 11.7762 13.3868 11.6043 13.2149C11.4324 13.043 11.3358 12.8098 11.3358 12.5667V8.90003C11.3358 8.65691 11.4324 8.42376 11.6043 8.25185C11.7762 8.07994 12.0093 7.98336 12.2525 7.98336C12.4956 7.98336 12.7287 8.07994 12.9006 8.25185C13.0725 8.42376 13.1691 8.65691 13.1691 8.90003V12.5667Z" fill="#EBBC16"/>
</g>
<defs>
<clipPath id="clip0_2522_92870">
<rect width="24" height="24" fill="white" transform="translate(0.459961 0.0910645)"/>
</clipPath>
</defs>
</svg>
