<svg width="20" height="20" viewBox="0 0 34 35" fill="none" xmlns="http://www.w3.org/2000/svg">
<g id="Group 1052">
<path id="Vector" d="M26.5389 33.9105H7.43465C3.37913 33.9105 0.101562 30.6202 0.101562 26.5774V7.48592C0.101562 3.4304 3.39188 0.152832 7.43465 0.152832H26.5262C30.5817 0.152832 33.8592 3.44316 33.8592 7.48592V26.5774C33.872 30.633 30.5817 33.9105 26.5389 33.9105Z" fill="#FCFCFC"/>
<path id="Vector_2" d="M25.2391 14.0793V15.2016C22.3952 19.5632 20.6352 24.0906 19.9466 28.7838H18.684C19.4109 24.0523 21.1964 19.525 24.0658 15.2016H16.6562V14.0793H25.2391Z" fill="#5A5A5A"/>
<path id="Vector_3" d="M26.3226 34.0253H7.66467C3.43061 34.0253 0 30.582 0 26.3607V7.70275C0 3.46869 3.44336 0.0380859 7.66467 0.0380859H26.3226C30.5566 0.0380859 33.9872 3.48145 33.9872 7.70275V26.3607C34 30.582 30.5566 34.0253 26.3226 34.0253ZM7.66467 0.25489C3.55814 0.25489 0.216804 3.59623 0.216804 7.70275V26.3607C0.216804 30.4672 3.55814 33.8085 7.66467 33.8085H26.3226C30.4291 33.8085 33.7704 30.4672 33.7704 26.3607V7.70275C33.7704 3.59623 30.4291 0.25489 26.3226 0.25489H7.66467Z" fill="#D8D8D8"/>
<path id="Vector_4" d="M11.6953 14.0793C11.5805 14.5767 11.3765 15.2016 10.9046 15.5842C10.4455 15.9668 9.55276 16.1581 8.68555 16.2091V16.9998H11.6825V28.771H12.9196V14.0793H11.6953Z" fill="#5A5A5A"/>
<path id="Vector_5" d="M33.8848 10.2281V7.66469C33.8848 3.4944 30.5052 0.102051 26.3221 0.102051H7.6642C3.49391 0.102051 0.101562 3.48165 0.101562 7.66469V10.2281H33.8848Z" fill="#E9574E"/>
<path id="Vector_6" d="M34 10.3428H0V7.66467C0 3.43061 3.44336 0 7.66467 0H26.3226C30.5566 0 33.9872 3.44336 33.9872 7.66467V10.3428H34ZM0.229556 10.1133H33.7704V7.66467C33.7704 3.55814 30.4291 0.216804 26.3226 0.216804H7.66467C3.55814 0.216804 0.216804 3.55814 0.216804 7.66467V10.1133H0.229556Z" fill="#E9574E"/>
<path id="Vector_7" d="M10.6238 6.56799C10.6238 6.65726 10.6365 6.77204 10.6493 6.87407C10.662 6.97609 10.6875 7.07812 10.7513 7.16739C10.8023 7.24391 10.8788 7.30767 10.9936 7.38419C11.1084 7.46071 11.2614 7.49897 11.4527 7.49897C11.6058 7.49897 11.7588 7.47347 11.8863 7.4097C12.0139 7.34593 12.1286 7.24391 12.2052 7.11638C12.2307 7.06536 12.2562 7.0016 12.2817 6.93783C12.2944 6.87407 12.3072 6.79755 12.3199 6.73378C12.3327 6.67002 12.3327 6.60625 12.3327 6.54248C12.3327 6.47872 12.3327 6.4277 12.3327 6.38945V2.6145H13.0851V6.60625C13.0851 6.86131 13.0341 7.07812 12.9448 7.26942C12.8556 7.46071 12.728 7.6265 12.575 7.75404C12.422 7.88157 12.2434 7.98359 12.0394 8.04736C11.8353 8.11113 11.6185 8.14939 11.389 8.14939C11.3124 8.14939 11.2232 8.13663 11.1211 8.12388C11.0064 8.11113 10.8916 8.08562 10.7768 8.04736C10.662 8.0091 10.5345 7.94533 10.4197 7.86882C10.3049 7.7923 10.1902 7.69027 10.1009 7.56274C10.0371 7.47347 9.9861 7.38419 9.94784 7.29492C9.90958 7.1929 9.88408 7.10362 9.87132 7.01435C9.85857 6.92508 9.84582 6.84856 9.83306 6.75929C9.83306 6.68277 9.82031 6.619 9.82031 6.55524L10.6238 6.56799Z" fill="white"/>
<path id="Vector_8" d="M15.3286 2.6145V5.9941C15.3286 6.13438 15.3414 6.26191 15.3541 6.37669C15.3669 6.47872 15.3924 6.56799 15.4051 6.64451C15.4306 6.72103 15.4561 6.78479 15.4816 6.83581C15.5072 6.88682 15.5327 6.93783 15.5709 6.97609C15.6602 7.09087 15.7495 7.18014 15.8642 7.25666C15.979 7.33318 16.081 7.38419 16.1831 7.42245C16.2979 7.46071 16.3999 7.48622 16.5147 7.49897C16.6167 7.51173 16.7187 7.51173 16.8207 7.51173C17.1906 7.51173 17.4711 7.44796 17.6752 7.32043C17.8793 7.1929 18.0195 7.05261 18.1088 6.87407C18.1981 6.70828 18.2618 6.52973 18.2746 6.36394C18.2873 6.19815 18.3001 6.05786 18.3001 5.95584V2.6145H19.027V5.98134C19.027 6.05786 19.027 6.14713 19.0143 6.26191C19.0143 6.36394 18.9888 6.49147 18.9633 6.619C18.9378 6.74653 18.8867 6.88682 18.8357 7.0271C18.772 7.16739 18.6955 7.30767 18.5807 7.44796C18.4404 7.61375 18.3001 7.75404 18.1343 7.84331C17.9685 7.94533 17.8155 8.02185 17.6497 8.07287C17.4839 8.12388 17.3309 8.16214 17.1906 8.17489C17.0503 8.18764 16.9228 8.2004 16.8335 8.2004C16.706 8.2004 16.5529 8.18764 16.3871 8.16214C16.2213 8.13663 16.0428 8.09837 15.8642 8.03461C15.6857 7.97084 15.5199 7.88157 15.3414 7.76679C15.1756 7.65201 15.0225 7.51173 14.895 7.32043C14.8567 7.25666 14.8185 7.1929 14.7802 7.11638C14.742 7.03986 14.7037 6.95059 14.6782 6.84856C14.6527 6.74654 14.6272 6.619 14.6017 6.46597C14.5889 6.32568 14.5762 6.14713 14.5762 5.94308V2.6145H15.3286Z" fill="white"/>
<path id="Vector_9" d="M20.4414 2.6145H21.1938V7.39695H23.7317V8.07287H20.4414V2.6145Z" fill="white"/>
</g>
</svg>
